<?xml version="1.0" encoding="UTF-8" standalone="no"?>
<svg
   xmlns:dc="http://purl.org/dc/elements/1.1/"
   xmlns:cc="http://creativecommons.org/ns#"
   xmlns:rdf="http://www.w3.org/1999/02/22-rdf-syntax-ns#"
   xmlns:svg="http://www.w3.org/2000/svg"
   xmlns="http://www.w3.org/2000/svg"
   xmlns:sodipodi="http://sodipodi.sourceforge.net/DTD/sodipodi-0.dtd"
   xmlns:inkscape="http://www.inkscape.org/namespaces/inkscape"
   width="9.5in"
   height="4.125in"
   viewBox="0 0 9.5 4.125"
   version="1.1"
   id="SVGRoot"
   sodipodi:docname="banner.svg"
   inkscape:version="1.0.1 (3bc2e813f5, 2020-09-07)">
  <defs
     id="defs93" />
  <sodipodi:namedview
     id="base"
     pagecolor="#ffffff"
     bordercolor="#666666"
     borderopacity="1.0"
     inkscape:pageopacity="0.0"
     inkscape:pageshadow="2"
     inkscape:zoom="1.4"
     inkscape:cx="738.48062"
     inkscape:cy="294.44249"
     inkscape:document-units="in"
     inkscape:current-layer="layer1"
     inkscape:document-rotation="0"
     showgrid="false"
     inkscape:window-width="1920"
     inkscape:window-height="1017"
     inkscape:window-x="-8"
     inkscape:window-y="-8"
     inkscape:window-maximized="1" />
  <metadata
     id="metadata96">
    <rdf:RDF>
      <cc:Work
         rdf:about="">
        <dc:format>image/svg+xml</dc:format>
        <dc:type
           rdf:resource="http://purl.org/dc/dcmitype/StillImage" />
        <dc:title />
      </cc:Work>
    </rdf:RDF>
  </metadata>
  <g
     inkscape:label="Layer 1"
     inkscape:groupmode="layer"
     id="layer1">
    <path
       d="m 0.08585454,2.1201373 c 0,-0.2869896 0,-0.4304896 0.0280896,-0.5489792 C 0.20479204,1.1879186 0.50401081,0.88869977 0.88725039,0.79785607 1.00574,0.76976207 1.14924,0.76976207 1.4362296,0.76976207 h 6.67425 c 0.2869896,0 0.4304896,0 0.5489792,0.028094 0.3832395,0.090844 0.6824583,0.39006253 0.773302,0.77330203 0.028094,0.1184894 0.028094,0.2619894 0.028094,0.548979 v 0 c 0,0.2869896 0,0.4304792 -0.028094,0.5489792 -0.090844,0.3832291 -0.3900625,0.6824583 -0.773302,0.7733021 -0.1184896,0.028094 -0.2619896,0.028094 -0.5489792,0.028094 h -6.67425 c -0.2869896,0 -0.4304896,0 -0.54897921,-0.028094 C 0.50401079,3.3515748 0.20479204,3.0523456 0.11394412,2.6691165 0.08585454,2.5506165 0.08585454,2.4071269 0.08585454,2.1201373 Z"
       fill="#f66079"
       fill-opacity="0.9"
       id="path2"
       style="stroke-width:0.0104167;fill:#f66079;fill-opacity:1" />
    <path
       d="m 2.15424,1.4891686 v 0.227302 H 2.32949 V 1.8405331 H 2.15424 v 0.5821355 c 0,0.037594 0.00781,0.065938 0.023427,0.085021 0.015615,0.01851 0.042219,0.02776 0.079813,0.02776 0.01851,0 0.043958,-0.00347 0.076354,-0.010406 V 2.655179 C 2.291605,2.666742 2.250542,2.672533 2.210636,2.672533 2.138917,2.672533 2.084834,2.650845 2.0483965,2.60746 2.0119588,2.5640852 1.99374,2.5024915 1.99374,2.4226686 V 1.8405331 H 1.8228338 V 1.7164706 H 1.99374 V 1.4891686 Z M 3.0972921,2.655179 C 3.0880421,2.636669 3.0805211,2.6037 3.0747301,2.556273 3.0001261,2.633783 2.911053,2.6725334 2.8075218,2.6725334 c -0.092542,0 -0.1685938,-0.026031 -0.2281667,-0.078083 -0.059,-0.052636 -0.0885,-0.1191464 -0.0885,-0.1995423 0,-0.09775 0.037021,-0.1735104 0.1110521,-0.227302 0.074615,-0.054375 0.1793021,-0.081552 0.3140625,-0.081552 h 0.1561667 v -0.07375 c 0,-0.056094 -0.016781,-0.1006354 -0.050323,-0.1336042 -0.033542,-0.033542 -0.083,-0.050312 -0.1483541,-0.050312 -0.05726,0 -0.1052709,0.014458 -0.1440209,0.043375 -0.03875,0.028917 -0.058125,0.063906 -0.058125,0.1049792 h -0.161365 c 0,-0.046854 0.016479,-0.091969 0.049448,-0.1353438 0.033552,-0.043958 0.078656,-0.078656 0.1353437,-0.1041041 0.05726,-0.025458 0.1200104,-0.038177 0.1882604,-0.038177 0.1081563,0 0.1928959,0.027188 0.254198,0.081552 0.061312,0.053792 0.093125,0.1281145 0.095437,0.2229687 v 0.4320417 c 0,0.086188 0.01099,0.1547187 0.032969,0.2056146 v 0.013885 z M 2.8309483,2.5328561 c 0.050323,0 0.098031,-0.013021 0.1431459,-0.039042 0.045115,-0.026031 0.077792,-0.059865 0.098042,-0.1015104 V 2.1996998 h -0.125802 c -0.1966459,0 -0.2949688,0.057552 -0.2949688,0.1726458 0,0.050323 0.016771,0.089656 0.050312,0.118 0.033552,0.028333 0.076635,0.042511 0.1292709,0.042511 z M 3.4460525,2.1780123 c 0,-0.1463229 0.033833,-0.2625833 0.1015104,-0.3487604 0.067667,-0.08676 0.1573125,-0.1301354 0.268948,-0.1301354 0.1145208,0 0.203875,0.04049 0.2680729,0.1214583 l 0.00781,-0.1041042 h 0.1466146 v 0.9161563 c 0,0.1214583 -0.036146,0.2171771 -0.1084376,0.2871562 -0.071719,0.06999 -0.1683125,0.1049792 -0.2897708,0.1049792 -0.067677,0 -0.1338958,-0.014458 -0.1986771,-0.043375 C 3.5773442,2.9524706 3.5278963,2.9128456 3.4937713,2.8625331 l 0.083292,-0.096302 c 0.068823,0.085021 0.1529792,0.1275312 0.2524584,0.1275312 0.078083,0 0.1388125,-0.021979 0.1821875,-0.065937 0.043958,-0.043958 0.065937,-0.1058437 0.065937,-0.1856562 v -0.080687 c -0.064198,0.074031 -0.151823,0.111052 -0.262875,0.111052 -0.1098959,0 -0.1989584,-0.04425 -0.2672084,-0.1327395 C 3.4798858,2.451304 3.4460525,2.3307102 3.4460525,2.1780123 Z m 0.161375,0.018219 c 0,0.1058437 0.021688,0.1891354 0.065063,0.2498645 0.043375,0.060146 0.1041146,0.090229 0.1821875,0.090229 0.1012188,0 0.1755417,-0.045979 0.2229688,-0.1379479 V 1.9697936 C 4.0284796,1.8801477 3.95474,1.8353248 3.8564171,1.8353248 c -0.078083,0 -0.1391042,0.030365 -0.1830625,0.091094 -0.043948,0.060729 -0.065927,0.1506666 -0.065927,0.2698125 z m 0.8779792,0.3747916 c 0,-0.02776 0.00809,-0.050896 0.024292,-0.069406 0.016771,-0.01851 0.041646,-0.02776 0.074615,-0.02776 0.032958,0 0.057833,0.00925 0.074604,0.02776 0.017354,0.01851 0.026031,0.041646 0.026031,0.069406 0,0.026604 -0.00868,0.048875 -0.026031,0.066802 -0.016771,0.017938 -0.041646,0.026896 -0.074604,0.026896 -0.032969,0 -0.057844,-0.00896 -0.074615,-0.026896 -0.016198,-0.017927 -0.024292,-0.040198 -0.024292,-0.066802 z m 0.8415416,-0.0295 c 0.05726,0 0.1072917,-0.017344 0.1500938,-0.052052 0.042802,-0.034698 0.06651,-0.078083 0.071135,-0.1301354 H 5.7 C 5.69711,2.4131275 5.678604,2.4643147 5.644479,2.512898 5.610354,2.561481 5.564666,2.600231 5.5074061,2.629148 5.4507181,2.658075 5.3905727,2.672533 5.3269477,2.672533 c -0.1278229,0 -0.2296145,-0.04251 -0.3053854,-0.1275312 -0.075188,-0.085604 -0.1127812,-0.2024375 -0.1127812,-0.3505 v -0.026896 c 0,-0.091385 0.016771,-0.1726459 0.050312,-0.2437917 0.033552,-0.071135 0.081552,-0.126375 0.1440208,-0.1657083 0.063042,-0.039323 0.1373646,-0.05899 0.2229688,-0.05899 0.1052604,0 0.1925937,0.031521 0.262,0.094563 0.06999,0.063042 0.1072916,0.1448854 0.1119166,0.2455208 H 5.5481775 c -0.00462,-0.060729 -0.02776,-0.1104687 -0.069406,-0.1492187 -0.041062,-0.039333 -0.091958,-0.05899 -0.1526875,-0.05899 -0.081552,0 -0.1448855,0.02949 -0.19,0.08849 -0.044531,0.058417 -0.066802,0.1431458 -0.066802,0.2541979 v 0.030365 c 0,0.1081562 0.022271,0.1914375 0.066802,0.2498541 0.044531,0.058417 0.1081562,0.087625 0.1908643,0.087625 z M 6.4270317,2.4061894 c 0,-0.043385 -0.01649,-0.076927 -0.049458,-0.1006458 -0.032386,-0.024292 -0.089354,-0.045115 -0.1709066,-0.062458 -0.080979,-0.017354 -0.1454688,-0.038177 -0.1934688,-0.062469 -0.047427,-0.024292 -0.082708,-0.053208 -0.1058437,-0.08676 -0.022552,-0.033542 -0.033833,-0.073448 -0.033833,-0.1197188 0,-0.076927 0.032385,-0.1419896 0.097167,-0.1952083 0.065354,-0.053208 0.1486459,-0.079813 0.2498646,-0.079813 0.1064167,0 0.1925938,0.027469 0.2585313,0.082417 0.06651,0.054948 0.09977,0.1252189 0.09977,0.2108231 H 6.41749 c 0,-0.043958 -0.018802,-0.081844 -0.056396,-0.1136563 -0.037021,-0.031813 -0.083865,-0.047708 -0.1405417,-0.047708 -0.058417,0 -0.1041146,0.012719 -0.1370833,0.038167 -0.032969,0.025448 -0.049448,0.058708 -0.049448,0.099771 0,0.03875 0.015323,0.067958 0.045979,0.087625 0.030656,0.019667 0.085885,0.038458 0.1657084,0.056396 0.080396,0.017927 0.1454583,0.039323 0.1951979,0.064198 0.04974,0.024875 0.086469,0.054948 0.1101875,0.090229 0.024292,0.034698 0.036437,0.077208 0.036437,0.1275312 0,0.083865 -0.033552,0.15125 -0.1006354,0.2021459 -0.067094,0.050312 -0.1541459,0.075479 -0.2611459,0.075479 -0.075187,0 -0.1416979,-0.013302 -0.1995416,-0.039906 C 5.9683754,2.6060123 5.9229692,2.5690019 5.8900004,2.5215748 5.857615,2.4735644 5.8414171,2.421804 5.8414171,2.3662727 h 0.1605 c 0.0029,0.053792 0.024292,0.096594 0.064198,0.1284063 0.04049,0.031229 0.093698,0.046844 0.1596354,0.046844 0.060729,0 0.1093125,-0.012146 0.14575,-0.036437 0.037021,-0.024865 0.055531,-0.057833 0.055531,-0.098897 z m 0.9161562,0 c 0,-0.043385 -0.016489,-0.076927 -0.049458,-0.1006458 -0.032386,-0.024292 -0.089355,-0.045115 -0.1709066,-0.062458 -0.080979,-0.017354 -0.1454687,-0.038177 -0.1934687,-0.062469 -0.047427,-0.024292 -0.082708,-0.053208 -0.1058437,-0.08676 -0.022563,-0.033542 -0.033833,-0.073448 -0.033833,-0.1197188 0,-0.076927 0.032385,-0.1419896 0.097167,-0.1952083 0.065354,-0.053208 0.1486458,-0.079813 0.2498541,-0.079813 0.1064271,0 0.1926042,0.027469 0.2585417,0.082417 0.06651,0.054948 0.099771,0.1252188 0.099771,0.210823 h -0.161365 c 0,-0.043958 -0.018802,-0.081844 -0.056396,-0.1136563 -0.037021,-0.031813 -0.083865,-0.047708 -0.1405525,-0.047708 -0.058417,0 -0.1041041,0.012719 -0.1370729,0.038167 -0.032969,0.025448 -0.049448,0.058708 -0.049448,0.099771 0,0.03875 0.015323,0.067958 0.045979,0.087625 0.030656,0.019667 0.085885,0.038458 0.1657083,0.056396 0.080396,0.017927 0.1454584,0.039323 0.1951979,0.064198 0.04974,0.024875 0.086469,0.054948 0.1101875,0.090229 0.024292,0.034698 0.036437,0.077208 0.036437,0.1275312 0,0.083865 -0.033552,0.15125 -0.1006458,0.2021459 -0.067083,0.050312 -0.1541354,0.075479 -0.2611354,0.075479 -0.075187,0 -0.1416979,-0.013302 -0.1995417,-0.039906 -0.057832,-0.026616 -0.1032387,-0.063626 -0.1362074,-0.111053 -0.032385,-0.04801 -0.048583,-0.099771 -0.048583,-0.1553021 h 0.1605 c 0.0029,0.053792 0.024292,0.096594 0.064198,0.1284063 0.04049,0.031229 0.093698,0.046844 0.1596354,0.046844 0.060729,0 0.1093125,-0.012146 0.14575,-0.036437 0.037021,-0.024865 0.055531,-0.057833 0.055531,-0.098897 z"
       fill="#f7f7f7"
       id="path4"
       style="stroke-width:0.0104167" />
    <path
       style="fill:none;fill-rule:evenodd;stroke:#000000;stroke-width:0.0104167px;stroke-linecap:butt;stroke-linejoin:miter;stroke-opacity:1"
       d="m 12.013061,-2.4554828 0.158823,0.2117647"
       id="path22"
       inkscape:connector-type="polyline"
       inkscape:connector-curvature="0" />
  </g>
</svg>
